HIERARCHY
ROOT Hips
{
	OFFSET 0.00000 0.00000 0.00000
	CHANNELS 6 Xposition Yposition Zposition Zrotation Yrotation Xrotation 
	JOINT LHipJoint
	{
		OFFSET 0 0 0
		CHANNELS 3 Zrotation Yrotation Xrotation
		JOINT LeftHip
		{
			OFFSET 1.46561 -1.72757 0.83774
			CHANNELS 3 Zrotation Yrotation Xrotation
			JOINT LeftKnee
			{
				OFFSET 2.48915 -6.83890 0.00000
				CHANNELS 3 Zrotation Yrotation Xrotation
				JOINT LeftAnkle
				{
					OFFSET 2.60555 -7.15868 0.00000
					CHANNELS 3 Zrotation Yrotation Xrotation
					JOINT LeftToe
					{
						OFFSET 0.19248 -0.52884 2.26738
						CHANNELS 3 Zrotation Yrotation Xrotation
						End Site
						{
							OFFSET 0.00000 -0.00000 1.17015
						}
					}
				}
			}
		}
	}
	JOINT RHipJoint
	{
		OFFSET 0 0 0
		CHANNELS 3 Zrotation Yrotation Xrotation
		JOINT RightHip
		{
			OFFSET -1.46918 -1.72757 0.83774
			CHANNELS 3 Zrotation Yrotation Xrotation
			JOINT RightKnee
			{
				OFFSET -2.49034 -6.84216 0.00000
				CHANNELS 3 Zrotation Yrotation Xrotation
				JOINT RightAnkle
				{
					OFFSET -2.65971 -7.30750 0.00000
					CHANNELS 3 Zrotation Yrotation Xrotation
					JOINT RightToe
					{
						OFFSET -0.19227 -0.52827 2.30785
						CHANNELS 3 Zrotation Yrotation Xrotation
						End Site
						{
							OFFSET -0.00000 -0.00000 1.18972
						}
					}
				}
			}
		}
	}
	JOINT lowerback
	{
		OFFSET 0 0 0
		CHANNELS 3 Zrotation Yrotation Xrotation
		JOINT Chest
		{
			OFFSET 0.02432 2.19909 -0.28000
			CHANNELS 3 Zrotation Yrotation Xrotation
			JOINT Chest2
			{
				OFFSET 0.03714 2.21816 -0.15261
				CHANNELS 3 Zrotation Yrotation Xrotation
				JOINT lowerneck
				{
					OFFSET 0 0 0
					CHANNELS 3 Zrotation Yrotation Xrotation
					JOINT Neck
					{
						OFFSET -0.01896 1.56165 0.21681
						CHANNELS 3 Zrotation Yrotation Xrotation
						JOINT Head
						{
							OFFSET 0.02744 1.56009 0.06764
							CHANNELS 3 Zrotation Yrotation Xrotation
							End Site
							{
								OFFSET 0.01212 1.60574 0.00298
							}
						}
					}
				}
				JOINT LeftCollar
				{
					OFFSET 0 0 0
					CHANNELS 3 Zrotation Yrotation Xrotation
					JOINT LeftShoulder
					{
						OFFSET 3.05595 1.48048 -0.60794
CHANNELS 3 Zrotation Xrotation Yrotation
						JOINT LeftElbow
						{
OFFSET 0 -5.206070 -0.000000
CHANNELS 3 Zrotation Xrotation Yrotation
							JOINT LeftWrist
							{
OFFSET 0 -3.399610 0.000000
CHANNELS 3 Zrotation Xrotation Yrotation
								JOINT lhand
								{
									OFFSET 0 0 0
CHANNELS 3 Zrotation Xrotation Yrotation
									JOINT LFingers
									{
OFFSET 0 -0.519690 0.000000
CHANNELS 3 Zrotation Xrotation Yrotation
										End Site
										{
OFFSET 0 -0.418990 0.000000
										}
									}
								}
								JOINT LThumb
								{
OFFSET 0 0.000000 0.000000
CHANNELS 3 Zrotation Xrotation Yrotation
									End Site
									{
OFFSET 0 -0.425390 0.425390
									}
								}
							}
						}
					}
				}
				JOINT RightCollar
				{
					OFFSET 0 0 0
					CHANNELS 3 Zrotation Yrotation Xrotation
					JOINT RightShoulder
					{
						OFFSET -2.99052 1.57608 -0.69102
CHANNELS 3 Zrotation Xrotation Yrotation
						JOINT RightElbow
						{
OFFSET 0 -5.322140 0.000000
CHANNELS 3 Zrotation Xrotation Yrotation
							JOINT RightWrist
							{
OFFSET 0 -3.512080 0.000000
CHANNELS 3 Zrotation Xrotation Yrotation
								JOINT rhand
								{
									OFFSET 0 0 0
CHANNELS 3 Zrotation Xrotation Yrotation
									JOINT RFingers
									{
OFFSET 0 -0.586680 0.000000
CHANNELS 3 Zrotation Xrotation Yrotation
										End Site
										{
OFFSET 0 -0.473000 0.000000
										}
									}
								}
								JOINT RThumb
								{
OFFSET 0 0.000000 0.000000
CHANNELS 3 Zrotation Xrotation Yrotation
									End Site
									{
OFFSET 0 -0.480220 0.480220
									}
								}
							}
						}
					}
				}
			}
		}
	}
}
MOTION
Frames: 5
Frame Time: .0083333
0.2537 16.1539 -6.5797 -0.6114 4.0757 -2.8747 0.0000 0.0000 0.0000 -17.8613 -2.7163 -24.6329 8.3043 16.3386 53.6514 1.4443 3.4028 -24.1486 0.0687 -1.6909 -4.6522 0.0000 0.0000 0.0000 15.6633 -0.2682 -26.8600 -9.4552 -17.0919 57.6515 -1.7458 5.7858 -23.7939 -0.0793 1.8170 -5.0003 1.4613 0.7647 5.9420 3.2029 1.0832 4.1821 2.4220 0.5350 0.9422 -2.6689 -1.1877 -9.9278 0.2828 -1.1075 36.3145 0.4419 -0.7533 14.0541 0.0000 -0.0000 0.0000 14.4882 -8.7296 -17.2202 20.7276 -31.509 5.9069 31.1182 -32.4824 9.4671 0.0 0.0 0.0 -7.1250 0.0 0.0 2.9475 18.9657 1.832 0.0000 -0.0000 0.0000 -7.1934 -12.583 4.6993 -17.1192 -27.0147 -4.1413 -22.0492 40.7426 23.5317 0.0 0.0 0.0 7.1250 0.0 -0.0 7.6631 54.9822 -1.8867
0.2616 16.1916 -6.5620 -0.4698 3.5891 -2.3670 0.0000 0.0000 0.0000 -18.0714 -2.4944 -24.4721 7.9901 16.1120 52.5271 1.4483 3.8624 -24.4094 0.0688 -1.6919 -4.6550 0.0000 0.0000 0.0000 15.5756 -0.1098 -27.0703 -9.2711 -16.9790 57.0229 -1.7359 6.0634 -23.6985 -0.0639 1.6306 -4.4858 1.3533 0.8569 5.5598 3.1353 1.1872 4.1999 2.4139 0.5852 1.1685 -2.5385 -1.1714 -9.8792 0.2069 -1.0930 36.4835 0.3902 -0.7408 14.1190 0.0000 -0.0000 0.0000 13.9709 -7.2901 -14.9107 18.1062 -28.2929 4.5995 30.0423 -29.9991 8.3096 0.0 0.0 0.0 -7.1250 0.0 0.0 2.2802 20.4065 1.3431 0.0000 -0.0000 0.0000 -7.1685 -11.4753 1.966 -15.5124 -24.8551 -3.4385 -21.4564 43.4192 24.2561 0.0 0.0 0.0 7.1250 0.0 -0.0 8.5750 55.6085 -2.2444
0.2700 16.2370 -6.5456 -0.3009 3.0937 -1.8199 0.0000 0.0000 0.0000 -18.3286 -2.2717 -24.3238 7.6574 15.8614 51.3192 1.4311 4.3689 -24.5424 0.0705 -1.7131 -4.7134 0.0000 0.0000 0.0000 15.5004 0.0682 -27.2198 -9.0343 -16.8297 56.2086 -1.7326 6.1943 -23.6649 -0.0458 1.3816 -3.7994 1.2134 0.9260 5.1666 3.0440 1.2610 4.1963 2.4017 0.6197 1.3798 -2.3869 -1.1384 -9.8165 0.1101 -1.0535 36.5721 0.3296 -0.7176 14.1429 0.0000 0.0000 0.0000 13.4964 -5.9087 -12.1682 15.5493 -24.9058 3.454 28.8218 -26.86 7.2343 0.0 0.0 0.0 -7.1250 0.0 0.0 1.4748 21.7368 0.824 0.0000 0.0000 0.0000 -7.1093 -10.4493 -1.2564 -13.9988 -22.733 -2.8277 -20.8644 46.2455 24.8303 0.0 0.0 0.0 7.1250 0.0 -0.0 9.4444 56.0738 -2.5818
0.2791 16.2898 -6.5312 -0.1486 2.5915 -1.2865 0.0000 0.0000 0.0000 -18.5825 -2.0334 -24.1939 7.3296 15.6033 50.1102 1.3922 4.8470 -24.5035 0.0696 -1.7021 -4.6831 0.0000 0.0000 0.0000 15.4809 0.2440 -27.2460 -8.7409 -16.6381 55.1898 -1.7348 6.1816 -23.6817 -0.0285 1.0906 -2.9980 1.0917 0.9667 4.8193 2.9356 1.3010 4.1891 2.3628 0.6378 1.5639 -2.2270 -1.0879 -9.7617 0.0241 -0.9951 36.5752 0.2744 -0.6840 14.1287 0.0000 -0.0000 0.0000 13.06 -4.6072 -8.7159 13.0827 -21.4083 2.4834 27.5349 -22.8485 6.2242 0.0 0.0 0.0 -7.1250 0.0 0.0 0.5889 22.968 0.3124 0.0000 -0.0000 0.0000 -7.0088 -9.482 -5.027 -12.6278 -20.7394 -2.3198 -20.2848 49.2927 25.2705 0.0 0.0 0.0 7.1250 0.0 -0.0 10.2550 56.4003 -2.8879
0.2888 16.3481 -6.5190 -0.0530 2.0869 -0.7963 0.0000 0.0000 0.0000 -18.7782 -1.7893 -24.0869 7.0232 15.3514 48.9622 1.3381 5.2307 -24.3010 0.0640 -1.6319 -4.4893 0.0000 0.0000 0.0000 15.5527 0.4133 -27.1154 -8.3949 -16.4022 53.9729 -1.7420 6.0551 -23.7427 -0.0138 0.7598 -2.0881 1.0257 0.9791 4.5499 2.8203 1.3084 4.1842 2.2856 0.6409 1.7096 -2.0708 -1.0213 -9.7220 -0.0278 -0.9253 36.4989 0.2352 -0.6420 14.0813 -0.0000 0.0000 0.0000 12.6547 -3.37 -4.1558 10.7545 -17.911 1.6997 26.2987 -17.5802 5.2345 0.0 0.0 0.0 -7.1250 0.0 0.0 -0.2877 24.1449 -0.1448 -0.0000 0.0000 0.0000 -6.8698 -8.5248 -9.2807 -11.4589 -18.9882 -1.9226 -19.689 52.5059 25.663 0.0 0.0 0.0 7.1250 0.0 -0.0 11.0701 56.6716 -3.1942
